# xmcd
#
# Track frame offsets:
#	150
#	23843
#	39407
#	57217
#	91045
#	115383
#	130749
#	159575
#	187592
#	204737
#	219479
#	245343
#	259318
#
# Disc length: 3684 seconds
#
# Revision: 1
# Processed by: cddbd v1.5.2PL0 Copyright (c) Steve Scherf et al.
# Submitted via: audiograbber 1.83.01
#
DISCID=aa0e620d
DTITLE=Terri Clark - Terri Clark Live: Road Rage
DYEAR=2009
DGENRE=Country
TTITLE0=In My Next Life
TTITLE1=You're Easy On The Eyes
TTITLE2=Better Things To Do
TTITLE3=Medley
TTITLE4=No Fear
TTITLE5=Dirty Girl
TTITLE6=Now That I Found You
TTITLE7=Love Me Like A Man
TTITLE8=I Just Wanna Be Mad
TTITLE9=Poor, Poor Pitiful Me
TTITLE10=Girls Lie Too
TTITLE11=I Wanna Do It All
TTITLE12=Hard To Handle
EXTD=
EXTT0=
EXTT1=
EXTT2=
EXTT3=
EXTT4=
EXTT5=
EXTT6=
EXTT7=
EXTT8=
EXTT9=
EXTT10=
EXTT11=
EXTT12=
PLAYORDER=
